# This file uses centimeters as units for non-parametric coordinates.

mtllib Arena2.mtl
g default
v -9.891076 -9.516795 -4.960816
v -9.856861 -9.516795 -9.701198
v -4.803500 -9.567125 -4.407801
v -4.968995 -9.516795 -9.668013
v -3.715641 -9.567125 -7.340599
v -7.491788 -9.567125 -3.675268
v 5.595724 -9.516795 -9.684665
v 10.483709 -9.516795 -9.684665
v 5.061131 -9.567125 -4.424599
v 10.483709 -9.516795 -4.978784
v 7.584770 -9.567125 -3.546829
v 4.287008 -9.567125 -8.311067
v -10.842252 10.221749 -5.447433
v -10.823530 10.235892 -8.041268
v -5.269452 10.166670 -4.833789
v -4.084121 10.181630 -8.051765
v -8.216575 10.181634 -4.040585
v -10.804808 10.221749 -10.635103
v -8.130272 10.235893 -10.616946
v -5.455737 10.221749 -10.598787
v 6.105837 10.221749 -10.617010
v 8.780437 10.235892 -10.617010
v 5.520802 10.166670 -4.860620
v 8.282563 10.181493 -3.900027
v 4.673634 10.181646 -8.060772
v 11.455038 10.221749 -10.617010
v 11.455038 10.235892 -8.023111
v 11.455038 10.221749 -5.429212
v 10.483709 -9.516795 -7.314415
v 8.039717 -9.516795 -9.684665
v -7.412927 -9.516795 -9.684607
v -9.873969 -9.516795 -7.331007
v -9.891076 8.517467 -4.960816
v -9.873969 8.529099 -7.331007
v -9.856861 8.517468 -9.701198
v -7.412927 8.529100 -9.684607
v -4.968995 8.517467 -9.668013
v -3.715641 8.479441 -7.340599
v -4.798771 8.467138 -4.400081
v -7.491788 8.479445 -3.675268
v 5.595724 8.517467 -9.684665
v 8.039717 8.529099 -9.684665
v 10.483709 8.517468 -9.684665
v 10.483709 8.529099 -7.314415
v 10.483709 8.517467 -4.944166
v 7.584770 8.479328 -3.546829
v 5.061131 8.467137 -4.424599
v 4.287008 8.479455 -7.348828
v 0.040272 9.315043 -9.492595
v 0.040272 10.166670 -9.492595
v -0.054072 10.181639 -8.181782
v -8.204940 9.328472 0.023867
v -8.204940 10.181590 0.023867
v -10.058001 9.315044 0.051756
v -10.058001 10.166670 0.051756
v -6.124372 9.315044 0.019810
v -6.124372 10.166670 0.019810
v 10.341391 9.315044 0.051434
v 8.583993 9.328472 0.021806
v 10.341391 10.166670 0.051434
v 8.583993 10.181590 0.021806
v 6.503425 9.315044 0.025863
v 6.503425 10.166670 0.025863
v 0.170936 10.166670 -5.161221
v 0.170936 9.315044 -5.161221
v 1.367337 9.328518 -8.145399
v 10.270129 -9.567125 5.353572
v 10.235914 -9.567125 10.093955
v 5.182553 -9.567125 4.800558
v 5.348048 -9.567125 10.060770
v 4.094694 -9.567125 7.733355
v 7.870841 -9.567125 4.068025
v -5.216671 -9.567125 10.077420
v -10.104656 -9.516795 10.077420
v -4.682078 -9.567125 4.817356
v -10.104656 -9.516795 5.226073
v -7.205717 -9.567125 3.939586
v -3.907954 -9.567125 8.104567
v 11.221305 10.166670 5.840190
v 11.202583 10.180813 8.434026
v 5.648505 10.166670 5.226546
v 4.463174 10.181630 8.444522
v 8.595628 10.181634 4.433342
v 11.183861 10.166670 11.027861
v 8.509325 10.180814 11.009704
v 5.834790 10.166670 10.991545
v -5.726784 10.221749 11.009766
v -8.401384 10.235892 11.009766
v -5.141748 10.166670 5.253377
v -7.903510 10.181493 4.292784
v -4.294580 10.181646 8.453528
v -11.075985 10.221749 11.009766
v -11.075985 10.235892 8.415869
v -11.075985 10.221749 5.821969
v -10.104656 -9.516795 7.707172
v -7.660664 -9.516795 10.077420
v 7.791980 -9.567125 10.077364
v 10.253022 -9.567125 7.723764
v 10.270129 8.467137 5.353572
v 10.253022 8.478769 7.723763
v 10.235914 8.467138 10.093955
v 7.791980 8.478770 10.077364
v 5.348048 8.467137 10.060770
v 4.094694 8.479441 7.733355
v 5.177824 8.467138 4.792838
v 7.870842 8.479445 4.068025
v -5.216671 8.517467 10.077420
v -7.660664 8.529099 10.077420
v -10.104656 8.517468 10.077420
v -10.104656 8.529099 7.707171
v -10.104656 8.517467 5.336923
v -7.205717 8.479328 3.939586
v -4.682078 8.467137 4.817356
v -3.907954 8.479455 7.741584
v 0.338782 9.315043 9.885352
v 0.338782 10.166670 9.885352
v 0.433125 10.181639 8.574538
v 0.208117 10.166670 5.553978
v 0.208117 9.315044 5.553978
v -0.988283 9.328518 8.538157
v -2.466815 10.166670 5.403678
v -2.466815 9.315044 5.403678
v -5.633060 10.166670 2.636594
v -5.633060 9.315044 2.636594
v 2.845869 10.166670 -5.010921
v 2.845869 9.315044 -5.010921
v 6.012113 10.166670 -2.417379
v 6.012113 9.315044 -2.417379
v 8.589251 10.181165 -8.039026
v 8.543072 10.181134 8.438168
v -8.210347 10.181165 8.431782
v -8.164019 10.181134 -8.045411
v -3.610997 9.364614 -8.974443
v -3.610997 10.216242 -8.974443
v -3.681116 10.181630 -8.064767
v -4.725413 10.166670 -4.866532
v -4.725413 9.315044 -4.866532
v -3.538975 9.328509 -8.061129
v 4.343004 9.328523 -8.069233
v 2.578376 9.315044 -5.025950
v 2.578376 10.166670 -5.025950
v 4.200863 10.181645 -8.072872
v 4.141958 10.216242 -8.988289
v 4.141958 9.364614 -8.988289
v -3.963951 9.328523 8.461990
v -2.199322 9.315044 5.418708
v -2.199322 10.166670 5.418708
v -3.821810 10.181645 8.465630
v -3.762905 10.216242 9.381044
v -3.762905 9.364614 9.381044
v 3.990050 9.315043 9.367201
v 3.990050 10.166670 9.367201
v 4.060169 10.181630 8.457523
v 5.104466 10.166670 5.259289
v 5.104466 9.315044 5.259289
v 3.918028 9.328509 8.453885
v -5.354944 9.315044 -4.348429
v -5.354944 10.166670 -4.348429
v -8.215411 10.181629 -3.634140
v -9.324755 10.216242 -3.965116
v -9.324755 9.364614 -3.965116
v -8.215411 9.328507 -3.634140
v -9.504492 9.364614 4.309816
v -9.504492 10.216242 4.309816
v -7.933653 10.181502 3.865892
v -5.682191 10.166670 2.374915
v -5.682191 9.315044 2.374915
v -7.933653 9.328394 3.865892
v 5.733997 9.315044 4.706478
v 5.733997 10.166670 4.706478
v 8.594464 10.181629 3.992188
v 9.681708 10.166670 4.323164
v 9.681708 9.315043 4.323164
v 8.594464 9.328507 3.992188
v 9.861444 9.364614 -3.951768
v 9.861444 10.216242 -3.951768
v 8.312706 10.181502 -3.507843
v 6.061244 10.166670 -2.173055
v 6.061244 9.315044 -2.173055
v 8.312706 9.328394 -3.507843
v -5.034111 9.574387 -4.616935
v 5.413165 9.316904 5.009692
vt 0.092834 0.451728
vt 0.093233 0.566889
vt 0.017999 0.563056
vt 0.018996 0.489855
vt 0.579939 0.566392
vt 0.583767 0.639059
vt 0.509482 0.637465
vt 0.470095 0.565115
vt 0.026649 0.841185
vt 0.471259 0.839440
vt 0.471011 0.875427
vt 0.025738 0.875563
vt 0.028448 0.703498
vt 0.029307 0.664707
vt 0.473732 0.667013
vt 0.473449 0.711538
vt 0.025387 0.909940
vt 0.470411 0.909804
vt 0.471007 0.945257
vt 0.024457 0.945387
vt 0.028889 0.747601
vt 0.472511 0.752001
vt 0.472169 0.798359
vt 0.028490 0.798522
vt 0.471037 0.980701
vt 0.024087 0.980835
vt 0.024457 0.945387
vt 0.471007 0.945257
vt 0.472169 0.798359
vt 0.471259 0.839440
vt 0.026649 0.841185
vt 0.028490 0.798522
vt 0.470411 0.909804
vt 0.025387 0.909940
vt 0.025738 0.875563
vt 0.471011 0.875427
vt 0.472511 0.752001
vt 0.028888 0.747600
vt 0.028448 0.703498
vt 0.473449 0.711538
vt 0.029307 0.664707
vt 0.473732 0.667013
vt 0.471037 0.980701
vt 0.024087 0.980834
vt 0.935885 0.208718
vt 0.905824 0.209996
vt 0.909981 0.185317
vt 0.946576 0.184321
vt 0.963950 0.211325
vt 0.982768 0.193746
vt 0.964036 0.240559
vt 0.989203 0.231638
vt 0.960631 0.270874
vt 0.985458 0.269103
vt 0.954384 0.443623
vt 0.953852 0.413640
vt 0.978584 0.418306
vt 0.978967 0.454708
vt 0.952630 0.472654
vt 0.970494 0.491515
vt 0.924416 0.473399
vt 0.934437 0.498513
vt 0.895287 0.472054
vt 0.899263 0.496953
vt 0.940862 0.293796
vt 0.953823 0.292955
vt 0.955406 0.339193
vt 0.938571 0.355531
vt 0.964299 0.295762
vt 0.965821 0.339530
vt 0.223529 0.604684
vt 0.222633 0.579173
vt 0.332994 0.583333
vt 0.337579 0.619674
vt 0.897825 0.278372
vt 0.900746 0.340560
vt 0.194988 0.489958
vt 0.336228 0.504370
vt 0.926208 0.396852
vt 0.888838 0.404764
vt 0.898290 0.374637
vt 0.494822 0.474178
vt 0.419309 0.475479
vt 0.456787 0.565567
vt 0.456083 0.591623
vt 0.961796 0.389350
vt 0.951067 0.391145
vt 0.938671 0.390393
vt 0.882922 0.228275
vt 0.890376 0.267216
vt 0.835899 0.258124
vt 0.836525 0.231737
vt 0.170972 0.465236
vt 0.092652 0.439722
vt 0.098423 0.329090
vt 0.151111 0.335914
vt 0.061599 0.448117
vt 0.047402 0.322812
vt 0.885425 0.201985
vt 0.887444 0.212570
vt 0.836369 0.208796
vt 0.836559 0.198334
vt 0.871906 0.449296
vt 0.878028 0.469999
vt 0.827762 0.471047
vt 0.828568 0.449309
vt 0.875513 0.480559
vt 0.827495 0.481507
vt 0.620408 0.454217
vt 0.577853 0.438551
vt 0.605979 0.336375
vt 0.654571 0.340638
vt 0.518867 0.399251
vt 0.520646 0.381965
vt 0.532444 0.326579
vt 0.553279 0.329751
vt 0.857769 0.418220
vt 0.829418 0.423124
vt 0.610659 0.014986
vt 0.685481 0.016244
vt 0.684662 0.089061
vt 0.609523 0.087772
vt 0.125333 0.089035
vt 0.122569 0.016308
vt 0.196592 0.018751
vt 0.234831 0.091368
vt 0.026649 0.841185
vt 0.471259 0.839440
vt 0.471011 0.875427
vt 0.025738 0.875563
vt 0.028448 0.703498
vt 0.029307 0.664707
vt 0.473732 0.667013
vt 0.473449 0.711538
vt 0.025387 0.909940
vt 0.470411 0.909804
vt 0.471007 0.945257
vt 0.024457 0.945387
vt 0.028888 0.747601
vt 0.472511 0.752001
vt 0.472169 0.798359
vt 0.028490 0.798522
vt 0.471037 0.980701
vt 0.024087 0.980835
vt 0.024457 0.945387
vt 0.471007 0.945257
vt 0.472169 0.798359
vt 0.471259 0.839440
vt 0.026649 0.841185
vt 0.028490 0.798522
vt 0.470411 0.909804
vt 0.025387 0.909940
vt 0.025738 0.875563
vt 0.471011 0.875427
vt 0.472511 0.752001
vt 0.028888 0.747600
vt 0.028448 0.703498
vt 0.473449 0.711538
vt 0.029307 0.664707
vt 0.473732 0.667013
vt 0.471037 0.980701
vt 0.024087 0.980834
vt 0.725080 0.471601
vt 0.755004 0.470070
vt 0.751098 0.494756
vt 0.714532 0.496021
vt 0.697006 0.469189
vt 0.678284 0.486805
vt 0.696839 0.440019
vt 0.671742 0.448943
vt 0.700225 0.409824
vt 0.675478 0.411466
vt 0.706568 0.237410
vt 0.707106 0.267364
vt 0.682378 0.262730
vt 0.681962 0.226379
vt 0.708267 0.208405
vt 0.690357 0.189587
vt 0.736488 0.207637
vt 0.726392 0.182536
vt 0.765619 0.208938
vt 0.761519 0.184026
vt 0.720182 0.386879
vt 0.707214 0.387891
vt 0.705514 0.341702
vt 0.722355 0.325401
vt 0.696926 0.385036
vt 0.694959 0.341319
vt 0.479310 0.052834
vt 0.480604 0.078278
vt 0.371358 0.073919
vt 0.366846 0.037558
vt 0.763151 0.402658
vt 0.760196 0.340437
vt 0.508728 0.167762
vt 0.368696 0.152676
vt 0.734740 0.284126
vt 0.772096 0.276245
vt 0.762626 0.306361
vt 0.209563 0.182029
vt 0.284980 0.180896
vt 0.248107 0.090979
vt 0.249051 0.064985
vt 0.699161 0.291607
vt 0.709888 0.289830
vt 0.722281 0.290577
vt 0.778294 0.451490
vt 0.770494 0.411796
vt 0.534247 0.191933
vt 0.612519 0.216082
vt 0.642925 0.207034
vt 0.775687 0.477454
vt 0.773619 0.466869
vt 0.789254 0.231756
vt 0.783116 0.210794
vt 0.785378 0.200197
vt 0.083737 0.201989
vt 0.126965 0.217954
vt 0.185084 0.262111
vt 0.184045 0.279534
vt 0.172051 0.338792
vt 0.805496 0.262859
vt 0.202034 0.472818
vt 0.333552 0.483427
vt 0.189878 0.455413
vt 0.500351 0.186655
vt 0.371741 0.173655
vt 0.514738 0.201025
vt 0.292485 0.173561
vt 0.309278 0.174661
vt 0.762374 0.309772
vt 0.128861 0.205876
vt 0.193644 0.255185
vt 0.782643 0.244267
vt 0.802138 0.263524
vt 0.411917 0.482884
vt 0.394894 0.481758
vt 0.898546 0.371227
vt 0.575903 0.449661
vt 0.510535 0.405717
vt 0.878439 0.436756
vt 0.860906 0.417564
vt 0.660511 0.568983
vt 0.663054 0.497145
vt 0.658634 0.641513
vt 0.492445 0.079643
vt 0.535322 0.011224
vt 0.685528 0.162790
vt 0.612215 0.203031
vt 0.526399 0.174925
vt 0.044902 0.085482
vt 0.041808 0.157643
vt 0.047874 0.012806
vt 0.177873 0.481594
vt 0.210687 0.577721
vt 0.165506 0.645323
vt 0.089631 0.639485
vt 0.014633 0.635551
vt 0.194894 0.465064
vt 0.900253 0.268444
vt 0.933739 0.282523
vt 0.401956 0.482696
vt 0.302265 0.173737
vt 0.507595 0.193038
vt 0.760718 0.411943
vt 0.727071 0.398193
vt 0.892511 0.237010
vt 0.185094 0.273006
vt 0.768577 0.442894
vt 0.519587 0.388086
vt 0.894062 0.272893
vt 0.766533 0.407072
vn 0.007922 0.999966 0.002347
vn 0.006790 0.999952 0.007053
vn 0.013078 0.999903 0.004744
vn 0.017350 0.999847 0.002255
vn -0.006862 0.999955 0.006582
vn -0.004644 0.999906 0.012870
vn -0.002131 0.999839 0.017793
vn -0.002346 0.999967 0.007848
vn -0.999974 0.000000 -0.007217
vn -0.998614 -0.047949 0.021692
vn -0.998691 -0.050628 -0.007266
vn -0.999974 0.000000 -0.007218
vn 0.880450 0.000000 -0.474138
vn 0.880450 0.000000 -0.474138
vn 0.880450 0.000000 -0.474138
vn 0.880450 0.000000 -0.474138
vn 0.006788 0.000000 -0.999977
vn 0.007084 -0.061215 -0.998100
vn 0.006725 -0.049182 -0.998767
vn 0.006789 0.000000 -0.999977
vn 0.261400 -0.000241 0.965231
vn 0.261400 -0.000241 0.965231
vn 0.261400 -0.000241 0.965231
vn 0.261400 -0.000241 0.965231
vn 0.937973 -0.000197 0.346708
vn 0.937973 -0.000197 0.346708
vn 0.937973 -0.000197 0.346708
vn 0.937973 -0.000197 0.346708
vn -0.472283 0.000000 0.881447
vn -0.472283 0.000000 0.881447
vn -0.472283 0.000000 0.881447
vn -0.472283 0.000000 0.881447
vn 0.000000 0.000000 -1.000000
vn -0.032984 -0.049491 -0.998230
vn 0.000058 -0.049441 -0.998777
vn 0.000000 0.000000 -1.000000
vn 0.438567 -0.000862 0.898698
vn 0.438567 -0.000862 0.898698
vn 0.438567 -0.000862 0.898698
vn 0.438567 -0.000862 0.898698
vn 1.000000 0.000000 0.000000
vn 0.997968 -0.063717 0.000331
vn 0.998664 -0.051680 -0.000059
vn 1.000000 0.000000 0.000000
vn -0.975107 -0.005911 0.221656
vn -0.975107 -0.005911 0.221656
vn -0.975107 -0.005911 0.221656
vn -0.975107 -0.005911 0.221656
vn -0.328515 0.000000 0.944499
vn -0.328515 0.000000 0.944499
vn -0.328515 0.000000 0.944499
vn -0.328515 0.000000 0.944499
vn -0.817147 0.015367 -0.576225
vn -0.817147 0.015367 -0.576225
vn -0.817147 0.015367 -0.576225
vn -0.817147 0.015367 -0.576225
vn 1.000000 0.000000 0.000000
vn 0.998664 -0.051680 -0.000059
vn 0.998316 -0.048984 0.031077
vn 1.000000 0.000000 0.000000
vn 0.000000 0.000000 -1.000000
vn 0.000058 -0.049441 -0.998777
vn -0.000311 -0.061714 -0.998094
vn 0.000000 0.000000 -1.000000
vn 0.006789 0.000000 -0.999977
vn 0.006725 -0.049182 -0.998767
vn 0.038946 -0.048789 -0.998050
vn 0.006789 0.000000 -0.999977
vn -0.999974 0.000000 -0.007218
vn -0.998691 -0.050628 -0.007266
vn -0.998014 -0.062612 -0.006879
vn -0.999974 0.000000 -0.007218
vn -0.998691 -0.050628 -0.007266
vn -0.998614 -0.047949 0.021692
vn -0.887552 -0.438218 0.142182
vn -0.872752 -0.488131 -0.005741
vn -0.998014 -0.062612 -0.006879
vn -0.998691 -0.050628 -0.007266
vn -0.872752 -0.488131 -0.005741
vn -0.873109 -0.487510 -0.003771
vn 0.006725 -0.049182 -0.998767
vn 0.007084 -0.061215 -0.998100
vn 0.008368 -0.476810 -0.878967
vn 0.006513 -0.477418 -0.878652
vn 0.038946 -0.048789 -0.998050
vn 0.006725 -0.049182 -0.998767
vn 0.006513 -0.477418 -0.878652
vn 0.157696 -0.421216 -0.893146
vn 0.000058 -0.049441 -0.998777
vn -0.032984 -0.049491 -0.998230
vn -0.150631 -0.421342 -0.894305
vn -0.000561 -0.479353 -0.877622
vn -0.000311 -0.061714 -0.998094
vn 0.000058 -0.049441 -0.998777
vn -0.000561 -0.479353 -0.877622
vn -0.002410 -0.478733 -0.877957
vn 0.998664 -0.051680 -0.000059
vn 0.997968 -0.063717 0.000331
vn 0.869486 -0.493951 0.002565
vn 0.869132 -0.494579 0.000568
vn 0.998316 -0.048984 0.031077
vn 0.998664 -0.051680 -0.000059
vn 0.869132 -0.494579 0.000568
vn 0.883028 -0.443338 0.153992
vn 0.131808 -0.991120 -0.017563
vn 0.244061 -0.963339 -0.111411
vn -0.003532 -0.999963 -0.007903
vn 0.001050 -0.999977 -0.006719
vn 0.282987 -0.097784 -0.954126
vn 0.229964 -0.085898 -0.969401
vn -0.140502 0.000000 -0.990080
vn -0.140502 0.000000 -0.990080
vn -0.000133 0.999885 0.015175
vn 0.000241 0.999974 0.007181
vn 0.000138 0.999982 0.006021
vn 0.007630 0.999927 0.009410
vn 0.305668 -0.945885 0.108944
vn 0.131808 -0.991120 -0.017563
vn 0.001050 -0.999977 -0.006719
vn -0.000082 -0.999990 -0.004416
vn 0.000138 0.999982 0.006021
vn 0.000241 0.999974 0.007181
vn 0.000232 0.999988 0.004828
vn 0.000044 0.999988 0.004867
vn -0.658925 -0.727028 -0.192997
vn -0.377908 -0.920836 0.096163
vn -0.601470 -0.787477 -0.134586
vn -0.000267 0.999989 0.004750
vn 0.006561 0.999876 0.014311
vn -0.000237 0.999989 0.004771
vn -0.000241 0.999963 0.008609
vn 0.000181 0.999896 0.014395
vn -0.006572 0.999940 0.008710
vn 0.000138 0.999982 0.006021
vn -0.212578 -0.084624 -0.973473
vn -0.260506 -0.096429 -0.960645
vn 0.122032 0.000000 -0.992526
vn 0.122032 0.000000 -0.992526
vn -0.246670 -0.963655 -0.102578
vn -0.240648 -0.965143 -0.102899
vn 0.001050 -0.999977 -0.006719
vn -0.003532 -0.999963 -0.007903
vn -0.039898 -0.984172 0.172666
vn 0.106250 -0.897117 0.428826
vn -0.005519 -0.999985 -0.000526
vn -0.006042 -0.999977 -0.002974
vn 0.005977 0.999982 0.000571
vn 0.007077 0.999973 0.001797
vn 0.006057 0.999977 0.002977
vn 0.006132 0.999981 0.000585
vn 0.007077 0.999973 0.001797
vn 0.012114 0.999927 -0.000250
vn 0.005929 0.999958 0.007023
vn 0.006057 0.999977 0.002977
vn -0.982116 -0.064980 0.176706
vn -0.964410 -0.078237 0.252570
vn -0.983745 0.000000 -0.179574
vn -0.983745 0.000000 -0.179574
vn -0.143186 -0.947690 0.285275
vn -0.039898 -0.984172 0.172666
vn -0.006042 -0.999977 -0.002974
vn -0.006927 -0.999951 -0.007115
vn 0.105566 -0.967941 0.227916
vn 0.146782 -0.932363 0.330385
vn 0.005996 -0.999956 -0.007168
vn 0.005977 -0.999974 -0.004084
vn 0.949542 -0.075988 0.304296
vn 0.970353 -0.063521 0.233196
vn 0.992890 0.000000 -0.119038
vn 0.992890 0.000000 -0.119038
vn -0.010358 0.999946 0.000153
vn -0.007237 0.999971 0.002507
vn -0.005831 0.999975 0.004076
vn -0.005107 0.999962 0.007078
vn -0.980375 0.000000 0.197143
vn -0.980375 0.000000 0.197143
vn -0.980375 0.000000 0.197144
vn -0.980375 0.000000 0.197144
vn 0.048693 -0.994789 0.089578
vn 0.105566 -0.967941 0.227916
vn 0.005977 -0.999974 -0.004084
vn 0.005956 -0.999982 -0.000728
vn -0.007237 0.999971 0.002507
vn -0.006580 0.999978 0.000804
vn -0.006618 0.999978 0.000809
vn -0.005831 0.999975 0.004076
vn 0.000063 0.999995 0.003211
vn 0.002704 0.999992 0.002827
vn 0.003113 0.999995 0.000097
vn 0.000051 1.000000 0.000054
vn 0.006863 0.999955 -0.006582
vn 0.004644 0.999906 -0.012871
vn 0.002131 0.999839 -0.017793
vn 0.002346 0.999967 -0.007848
vn 0.999974 0.000000 0.007217
vn 0.998585 -0.048175 -0.022538
vn 0.998690 -0.050641 0.007266
vn 0.999974 0.000000 0.007218
vn -0.880451 0.000000 0.474138
vn -0.880451 0.000000 0.474138
vn -0.880451 0.000000 0.474138
vn -0.880451 0.000000 0.474138
vn -0.006789 0.000000 0.999977
vn -0.007085 -0.061257 0.998097
vn -0.006725 -0.049194 0.998767
vn -0.006789 0.000000 0.999977
vn -0.261399 -0.000241 -0.965231
vn -0.261399 -0.000241 -0.965231
vn -0.261399 -0.000241 -0.965231
vn -0.261399 -0.000241 -0.965231
vn -0.937973 -0.000197 -0.346708
vn -0.937973 -0.000197 -0.346708
vn -0.937973 -0.000197 -0.346708
vn -0.937973 -0.000197 -0.346708
vn 0.472283 0.000000 -0.881447
vn 0.472283 0.000000 -0.881447
vn 0.472283 0.000000 -0.881447
vn 0.472283 0.000000 -0.881447
vn 0.000000 0.000000 1.000000
vn 0.032944 -0.049430 0.998234
vn -0.000058 -0.049409 0.998779
vn 0.000000 0.000000 1.000000
vn -0.420038 0.002788 -0.907502
vn -0.420038 0.002788 -0.907502
vn -0.420038 0.002788 -0.907502
vn -0.420038 0.002788 -0.907502
vn -1.000000 0.000000 0.000000
vn -0.997968 -0.063717 -0.000331
vn -0.998700 -0.050969 0.000058
vn -1.000000 0.000000 0.000000
vn 0.970310 -0.002433 -0.241852
vn 0.970310 -0.002433 -0.241852
vn 0.970310 -0.002433 -0.241852
vn 0.970310 -0.002433 -0.241852
vn 0.328515 0.000000 -0.944499
vn 0.328515 0.000000 -0.944499
vn 0.328515 0.000000 -0.944499
vn 0.328515 0.000000 -0.944499
vn 0.854669 0.005215 0.519147
vn 0.854669 0.005215 0.519147
vn 0.854669 0.005215 0.519147
vn 0.854669 0.005215 0.519147
vn -1.000000 0.000000 0.000000
vn -0.998700 -0.050969 0.000058
vn -0.998418 -0.047831 -0.029548
vn -1.000000 0.000000 0.000000
vn 0.000000 0.000000 1.000000
vn -0.000058 -0.049409 0.998779
vn 0.000311 -0.061714 0.998094
vn 0.000000 0.000000 1.000000
vn -0.006789 0.000000 0.999977
vn -0.006725 -0.049194 0.998767
vn -0.038944 -0.048791 0.998049
vn -0.006789 0.000000 0.999977
vn 0.999974 0.000000 0.007218
vn 0.998690 -0.050641 0.007266
vn 0.998012 -0.062654 0.006878
vn 0.999974 0.000000 0.007218
vn 0.998690 -0.050641 0.007266
vn 0.998585 -0.048175 -0.022538
vn 0.887241 -0.438028 -0.144688
vn 0.872172 -0.489167 0.005734
vn 0.998012 -0.062654 0.006878
vn 0.998690 -0.050641 0.007266
vn 0.872172 -0.489167 0.005734
vn 0.872531 -0.488544 0.003761
vn -0.006725 -0.049194 0.998767
vn -0.007085 -0.061257 0.998097
vn -0.008370 -0.477835 0.878410
vn -0.006511 -0.478445 0.878094
vn -0.038944 -0.048791 0.998049
vn -0.006725 -0.049194 0.998767
vn -0.006511 -0.478445 0.878094
vn -0.157965 -0.422025 0.892716
vn -0.000058 -0.049409 0.998779
vn 0.032944 -0.049430 0.998234
vn 0.150631 -0.421342 0.894305
vn 0.000561 -0.479353 0.877622
vn 0.000311 -0.061714 0.998094
vn -0.000058 -0.049409 0.998779
vn 0.000561 -0.479353 0.877622
vn 0.002410 -0.478733 0.877957
vn -0.998700 -0.050969 0.000058
vn -0.997968 -0.063717 -0.000331
vn -0.869486 -0.493951 -0.002565
vn -0.869132 -0.494580 -0.000568
vn -0.998418 -0.047831 -0.029548
vn -0.998700 -0.050969 0.000058
vn -0.869132 -0.494580 -0.000568
vn -0.883503 -0.443409 -0.151033
vn -0.131768 -0.991218 0.011101
vn -0.252157 -0.963238 0.092679
vn -0.002193 -0.999977 -0.006410
vn -0.001668 -0.999985 0.005173
vn -0.284654 -0.098241 0.953583
vn -0.227819 -0.085489 0.969943
vn 0.140502 0.000000 0.990080
vn 0.140502 0.000000 0.990080
vn -0.001763 0.999913 0.013046
vn -0.000555 1.000000 -0.000655
vn 0.001047 0.999995 -0.002934
vn 0.001185 0.999907 0.013566
vn -0.305668 -0.945885 -0.108944
vn -0.131768 -0.991218 0.011101
vn -0.001668 -0.999985 0.005173
vn 0.000082 -0.999990 0.004415
vn 0.001047 0.999995 -0.002934
vn -0.000555 1.000000 -0.000655
vn -0.000232 0.999988 -0.004827
vn -0.000044 0.999988 -0.004866
vn 0.658925 -0.727028 0.192997
vn 0.377908 -0.920836 -0.096163
vn 0.601470 -0.787477 0.134586
vn 0.000267 0.999989 -0.004751
vn -0.006561 0.999876 -0.014311
vn 0.000237 0.999989 -0.004771
vn 0.000241 0.999963 -0.008610
vn -0.000181 0.999896 -0.014397
vn 0.006572 0.999940 -0.008712
vn 0.001047 0.999995 -0.002934
vn 0.212577 -0.084624 0.973473
vn 0.260506 -0.096429 0.960645
vn -0.122032 0.000000 0.992526
vn -0.122032 0.000000 0.992526
vn 0.246670 -0.963655 0.102578
vn 0.240648 -0.965143 0.102899
vn -0.001668 -0.999985 0.005173
vn -0.002193 -0.999977 -0.006410
vn 0.029642 -0.986354 -0.161945
vn -0.096992 -0.914233 -0.393409
vn 0.005513 -0.999985 0.000488
vn 0.000211 -1.000000 0.000053
vn -0.005972 0.999982 -0.000529
vn 0.000209 1.000000 -0.000504
vn -0.000235 1.000000 -0.000059
vn -0.006126 0.999981 -0.000542
vn 0.000209 1.000000 -0.000504
vn 0.011026 0.999937 -0.002065
vn 0.010400 0.999946 0.000814
vn -0.000235 1.000000 -0.000059
vn 0.981191 -0.063431 -0.182321
vn 0.963365 -0.077074 -0.256882
vn 0.988285 0.000000 0.152621
vn 0.988285 0.000000 0.152621
vn 0.125964 -0.948538 -0.290532
vn 0.029642 -0.986354 -0.161945
vn 0.000211 -1.000000 0.000053
vn -0.009360 -0.999956 -0.000733
vn -0.101009 -0.971944 -0.212421
vn -0.133004 -0.944842 -0.299304
vn -0.005734 -0.999961 0.006694
vn -0.005837 -0.999976 0.003814
vn -0.958024 -0.077891 -0.275904
vn -0.976298 -0.064850 -0.206487
vn -0.991657 0.000000 0.128906
vn -0.991657 0.000000 0.128906
vn 0.009793 0.999952 -0.000485
vn 0.007011 0.999972 -0.002472
vn 0.005707 0.999977 -0.003803
vn 0.004878 0.999966 -0.006606
vn 0.982827 0.000000 -0.184530
vn 0.982827 0.000000 -0.184530
vn 0.982827 0.000000 -0.184530
vn 0.982827 0.000000 -0.184530
vn -0.046952 -0.995988 -0.076176
vn -0.101009 -0.971944 -0.212421
vn -0.005837 -0.999976 0.003814
vn -0.005949 -0.999982 0.000672
vn 0.007011 0.999972 -0.002472
vn 0.006575 0.999978 -0.000743
vn 0.006610 0.999978 -0.000747
vn 0.005707 0.999977 -0.003803
vn 0.081945 0.014034 0.996538
vn 0.112142 0.024136 0.993399
vn 0.021822 0.000000 0.999762
vn 0.021822 0.000000 0.999762
vn 0.971334 0.027032 0.236176
vn 0.979416 0.016343 0.201192
vn 0.984839 0.000000 0.173471
vn 0.984839 0.000000 0.173471
vn -0.081608 0.013817 -0.996569
vn -0.097174 0.023822 -0.994982
vn -0.021822 0.000000 -0.999762
vn -0.021822 0.000000 -0.999762
vn -0.986756 0.000000 -0.162209
vn -0.986756 0.000000 -0.162209
vn -0.978570 0.026469 -0.204208
vn -0.982119 0.015960 -0.187582
vn 0.000180 0.999988 -0.004889
vn 0.000241 0.999963 -0.008610
vn 0.001047 0.999995 -0.002934
vn -0.000044 0.999988 -0.004866
vn 0.056100 0.000000 -0.998425
vn 0.056100 0.000000 -0.998425
vn -0.021822 0.000000 -0.999762
vn -0.021822 0.000000 -0.999762
vn 0.240648 -0.965143 0.102899
vn 0.079407 -0.995901 0.043321
vn 0.000082 -0.999990 0.004415
vn -0.001668 -0.999985 0.005173
vn 0.012583 0.999905 0.005559
vn 0.005742 0.999983 -0.001078
vn 0.005846 0.999982 -0.000958
vn 0.138526 -0.901147 -0.410785
vn -0.181133 -0.735842 -0.652478
vn -0.113678 -0.808245 -0.577769
vn -0.000180 0.999988 0.004889
vn -0.000241 0.999963 0.008609
vn 0.000138 0.999982 0.006021
vn 0.000044 0.999988 0.004867
vn -0.056100 0.000000 0.998425
vn -0.056100 0.000000 0.998425
vn 0.021822 0.000000 0.999762
vn 0.021822 0.000000 0.999762
vn -0.240648 -0.965143 -0.102899
vn -0.079407 -0.995901 -0.043321
vn -0.000082 -0.999990 -0.004416
vn 0.001050 -0.999977 -0.006719
vn -0.013021 0.999896 -0.006232
vn -0.005771 0.999983 0.001160
vn -0.005864 0.999982 0.001041
vn -0.150262 -0.883197 0.444279
vn 0.182823 -0.697234 0.693138
vn 0.085462 -0.784440 0.614289
vn -0.007621 0.999969 0.001848
vn -0.006862 0.999955 0.006582
vn -0.002346 0.999967 0.007848
vn -0.002468 0.999995 0.002178
vn -0.012056 0.999920 0.003931
vn -0.006862 0.999955 0.006582
vn -0.007621 0.999969 0.001848
vn -0.015390 0.999881 0.001351
vn -0.012056 0.999920 0.003931
vn -0.007347 0.999944 0.007575
vn -0.004644 0.999906 0.012870
vn -0.006862 0.999955 0.006582
vn 0.000063 0.999995 0.003211
vn 0.000051 1.000000 0.000054
vn -0.002216 0.999998 -0.000147
vn -0.002027 0.999992 0.003515
vn 0.000051 1.000000 0.000054
vn 0.003113 0.999995 0.000097
vn 0.003431 0.999992 -0.002030
vn -0.000187 0.999997 -0.002263
vn -0.002216 0.999998 -0.000147
vn 0.000051 1.000000 0.000054
vn -0.000187 0.999997 -0.002263
vn -0.002332 0.999994 -0.002402
vn 0.007620 0.999969 -0.001848
vn 0.006863 0.999955 -0.006582
vn 0.002346 0.999967 -0.007848
vn 0.002468 0.999995 -0.002178
vn 0.012056 0.999920 -0.003930
vn 0.006863 0.999955 -0.006582
vn 0.007620 0.999969 -0.001848
vn 0.015390 0.999881 -0.001350
vn 0.012056 0.999920 -0.003930
vn 0.007347 0.999944 -0.007575
vn 0.004644 0.999906 -0.012871
vn 0.006863 0.999955 -0.006582
vn 0.007922 0.999966 0.002347
vn 0.002332 0.999994 0.002402
vn 0.002201 0.999963 0.008352
vn 0.006790 0.999952 0.007053
vn 0.006790 0.999952 0.007053
vn 0.002201 0.999963 0.008352
vn 0.001989 0.999836 0.018013
vn 0.004464 0.999898 0.013565
vn 0.013078 0.999903 0.004744
vn 0.006790 0.999952 0.007053
vn 0.004464 0.999898 0.013565
vn 0.007593 0.999940 0.007940
vn 0.038946 -0.048789 -0.998050
vn 0.157696 -0.421216 -0.893146
vn 0.229964 -0.085898 -0.969401
vn 0.282987 -0.097784 -0.954126
vn -0.017862 0.999439 0.028333
vn -0.008759 0.999826 0.016463
vn 0.000241 0.999974 0.007181
vn -0.000133 0.999885 0.015175
vn 0.000232 0.999988 0.004828
vn 0.000241 0.999974 0.007181
vn -0.008759 0.999826 0.016463
vn 0.000229 0.999989 0.004743
vn 0.628024 0.214698 0.747991
vn 0.610243 0.231168 0.757737
vn 0.112142 0.024136 0.993399
vn 0.081945 0.014034 0.996538
vn 0.932633 0.104220 0.345448
vn 0.974222 -0.085764 0.208655
vn 0.131808 -0.991120 -0.017563
vn 0.305668 -0.945885 0.108944
vn 0.974222 -0.085764 0.208655
vn 0.704340 -0.642068 -0.302744
vn 0.244061 -0.963339 -0.111411
vn 0.131808 -0.991120 -0.017563
vn -0.658925 -0.727028 -0.192997
vn -0.601470 -0.787477 -0.134586
vn -0.079407 -0.995901 -0.043321
vn -0.240648 -0.965143 -0.102899
vn -0.056099 0.000000 0.998425
vn -0.056099 0.000000 0.998425
vn -0.056100 0.000000 0.998425
vn -0.056100 0.000000 0.998425
vn -0.000237 0.999989 0.004771
vn 0.006561 0.999876 0.014311
vn -0.000241 0.999963 0.008609
vn -0.000180 0.999988 0.004889
vn 0.006561 0.999876 0.014311
vn 0.016282 0.999477 0.027946
vn 0.000181 0.999896 0.014395
vn -0.000241 0.999963 0.008609
vn -0.150631 -0.421342 -0.894305
vn -0.032984 -0.049491 -0.998230
vn -0.260506 -0.096429 -0.960645
vn -0.212578 -0.084624 -0.973473
vn -0.741965 -0.615194 -0.266503
vn -0.658925 -0.727028 -0.192997
vn -0.240648 -0.965143 -0.102899
vn -0.246670 -0.963655 -0.102578
vn 0.658925 -0.727028 0.192997
vn 0.601470 -0.787477 0.134586
vn 0.079407 -0.995901 0.043321
vn 0.240648 -0.965143 0.102899
vn 0.056099 0.000000 -0.998425
vn 0.056099 0.000000 -0.998425
vn 0.056100 0.000000 -0.998425
vn 0.056100 0.000000 -0.998425
vn 0.000237 0.999989 -0.004771
vn -0.006561 0.999876 -0.014311
vn 0.000241 0.999963 -0.008610
vn 0.000180 0.999988 -0.004889
vn -0.006561 0.999876 -0.014311
vn -0.016282 0.999477 -0.027946
vn -0.000181 0.999896 -0.014397
vn 0.000241 0.999963 -0.008610
vn 0.150631 -0.421342 0.894305
vn 0.032944 -0.049430 0.998234
vn 0.260506 -0.096429 0.960645
vn 0.212577 -0.084624 0.973473
vn 0.741965 -0.615194 0.266504
vn 0.658925 -0.727028 0.192997
vn 0.240648 -0.965143 0.102899
vn 0.246670 -0.963655 0.102578
vn -0.038944 -0.048791 0.998049
vn -0.157965 -0.422025 0.892716
vn -0.227819 -0.085489 0.969943
vn -0.284654 -0.098241 0.953583
vn -0.008498 0.999894 0.011856
vn -0.004336 0.999985 0.003501
vn -0.000555 1.000000 -0.000655
vn -0.001763 0.999913 0.013046
vn -0.000232 0.999988 -0.004827
vn -0.000555 1.000000 -0.000655
vn -0.004336 0.999985 0.003501
vn -0.000229 0.999989 -0.004743
vn -0.654495 0.184000 -0.733335
vn -0.635657 0.241152 -0.733339
vn -0.097174 0.023822 -0.994982
vn -0.081608 0.013817 -0.996569
vn -0.932633 0.104220 -0.345447
vn -0.973323 -0.088112 -0.211845
vn -0.131768 -0.991218 0.011101
vn -0.305668 -0.945885 -0.108944
vn -0.973323 -0.088112 -0.211845
vn -0.708734 -0.645469 0.284721
vn -0.252157 -0.963238 0.092679
vn -0.131768 -0.991218 0.011101
vn 0.971334 0.027032 0.236176
vn 0.610243 0.231168 0.757737
vn 0.628024 0.214698 0.747991
vn 0.979416 0.016343 0.201192
vn 0.005283 0.999986 0.000507
vn 0.017450 0.999796 -0.010189
vn 0.007077 0.999973 0.001797
vn 0.005977 0.999982 0.000571
vn 0.017450 0.999796 -0.010189
vn 0.029777 0.999335 -0.021026
vn 0.012114 0.999927 -0.000250
vn 0.007077 0.999973 0.001797
vn -0.887552 -0.438218 0.142182
vn -0.998614 -0.047949 0.021692
vn -0.964410 -0.078237 0.252570
vn -0.982116 -0.064980 0.176706
vn -0.368940 -0.509419 0.777416
vn 0.102504 -0.028551 0.994323
vn -0.039898 -0.984172 0.172666
vn -0.143186 -0.947690 0.285275
vn 0.102504 -0.028551 0.994323
vn 0.249127 0.135453 0.958952
vn 0.106250 -0.897117 0.428826
vn -0.039898 -0.984172 0.172666
vn -0.998418 -0.047831 -0.029548
vn -0.883503 -0.443409 -0.151033
vn -0.976298 -0.064850 -0.206487
vn -0.958024 -0.077891 -0.275904
vn 0.021852 0.999656 0.014536
vn 0.012583 0.999905 0.005559
vn 0.007011 0.999972 -0.002472
vn 0.009793 0.999952 -0.000485
vn 0.012583 0.999905 0.005559
vn 0.005846 0.999982 -0.000958
vn 0.006575 0.999978 -0.000743
vn 0.007011 0.999972 -0.002472
vn 0.982827 0.000000 -0.184529
vn 0.982827 0.000000 -0.184529
vn 0.982827 0.000000 -0.184530
vn 0.982827 0.000000 -0.184530
vn -0.113678 -0.808245 -0.577769
vn -0.181133 -0.735842 -0.652478
vn -0.101009 -0.971944 -0.212421
vn -0.046952 -0.995988 -0.076176
vn -0.181133 -0.735842 -0.652478
vn -0.330239 -0.531221 -0.780222
vn -0.133004 -0.944842 -0.299304
vn -0.101009 -0.971944 -0.212421
vn -0.982119 0.015960 -0.187582
vn -0.978570 0.026469 -0.204208
vn -0.635657 0.241152 -0.733339
vn -0.654495 0.184000 -0.733335
vn -0.005274 0.999986 -0.000468
vn 0.003510 0.999981 -0.005132
vn 0.000209 1.000000 -0.000504
vn -0.005972 0.999982 -0.000529
vn 0.003510 0.999981 -0.005132
vn 0.012758 0.999868 -0.010041
vn 0.011026 0.999937 -0.002065
vn 0.000209 1.000000 -0.000504
vn 0.887241 -0.438028 -0.144688
vn 0.998585 -0.048175 -0.022538
vn 0.963365 -0.077074 -0.256882
vn 0.981191 -0.063431 -0.182321
vn 0.353344 -0.530470 -0.770551
vn -0.102098 -0.071317 -0.992215
vn 0.029642 -0.986354 -0.161945
vn 0.125964 -0.948538 -0.290532
vn -0.102098 -0.071317 -0.992215
vn -0.250098 0.096533 -0.963396
vn -0.096992 -0.914233 -0.393409
vn 0.029642 -0.986354 -0.161945
vn 0.998316 -0.048984 0.031077
vn 0.883028 -0.443338 0.153992
vn 0.970353 -0.063521 0.233196
vn 0.949542 -0.075988 0.304296
vn -0.022521 0.999620 -0.015894
vn -0.013021 0.999896 -0.006232
vn -0.007237 0.999971 0.002507
vn -0.010358 0.999946 0.000153
vn -0.013021 0.999896 -0.006232
vn -0.005864 0.999982 0.001041
vn -0.006580 0.999978 0.000804
vn -0.007237 0.999971 0.002507
vn -0.980375 0.000000 0.197143
vn -0.980375 0.000000 0.197143
vn -0.980375 0.000000 0.197143
vn -0.980375 0.000000 0.197143
vn 0.085462 -0.784440 0.614289
vn 0.182823 -0.697234 0.693138
vn 0.105566 -0.967941 0.227916
vn 0.048693 -0.994789 0.089578
vn 0.182823 -0.697234 0.693138
vn 0.337480 -0.504324 0.794836
vn 0.146782 -0.932363 0.330385
vn 0.105566 -0.967941 0.227916
vn 0.607412 0.275059 0.745247
vn 0.610243 0.231168 0.757737
vn 0.971334 0.027032 0.236176
vn 0.112142 0.024136 0.993399
vn 0.610243 0.231168 0.757737
vn 0.607412 0.275059 0.745247
vn -0.635657 0.241152 -0.733339
vn -0.978570 0.026469 -0.204208
vn -0.618747 0.350746 -0.702943
vn -0.097174 0.023822 -0.994982
vn -0.635657 0.241152 -0.733339
vn -0.618747 0.350746 -0.702943
vn -0.255461 -0.926701 -0.275619
vn -0.255461 -0.926701 -0.275619
vn -0.255461 -0.926701 -0.275619
vn -0.255461 -0.926701 -0.275619
vn 0.263587 -0.922650 0.281493
vn 0.263587 -0.922650 0.281493
vn 0.263587 -0.922650 0.281493
vn 0.263587 -0.922650 0.281493
vn 0.678016 0.000000 0.735047
vn 0.678016 0.000000 0.735047
vn 0.678016 0.000000 0.735047
vn 0.678016 0.000000 0.735047
vn 0.000000 1.000000 0.000000
vn 0.000000 1.000000 0.000000
vn 0.000000 1.000000 0.000000
vn 0.000000 1.000000 0.000000
vn 0.000000 1.000000 0.000000
vn 0.000000 1.000000 0.000000
vn 0.000000 1.000000 0.000000
vn 0.000000 1.000000 0.000000
vn -0.669762 0.000000 -0.742576
vn -0.669762 0.000000 -0.742576
vn -0.669762 0.000000 -0.742576
vn -0.669762 0.000000 -0.742576
s off
g Arena2:polySurface7
usemtl Arena2:initialShadingGroup
f 17/1/1 132/2/2 14/3/3 13/4/4
f 129/5/5 22/6/6 21/7/7 25/8/8
f 1/9/9 33/10/10 34/11/11 32/12/12
f 5/13/13 4/14/14 37/15/15 38/16/16
f 2/17/17 35/18/18 36/19/19 31/20/20
f 3/21/21 39/22/22 40/23/23 6/24/24
f 38/16/25 39/22/26 3/21/27 5/13/28
f 40/23/29 33/10/30 1/9/31 6/24/32
f 7/25/33 41/26/34 42/27/35 30/28/36
f 11/29/37 10/30/38 45/31/39 46/32/40
f 8/33/41 43/34/42 44/35/43 29/36/44
f 9/37/45 47/38/46 48/39/47 12/40/48
f 46/32/49 47/38/50 9/37/51 11/29/52
f 48/39/53 41/41/54 7/42/55 12/40/56
f 29/36/57 44/35/58 45/31/59 10/30/60
f 30/28/61 42/27/62 43/34/63 8/33/64
f 31/20/65 36/19/66 37/43/67 4/44/68
f 32/12/69 34/11/70 35/18/71 2/17/72
f 34/45/73 33/46/74 13/47/75 14/48/76
f 35/49/77 34/45/78 14/48/79 18/50/80
f 36/51/81 35/49/82 18/50/83 19/52/84
f 37/53/85 36/51/86 19/52/87 20/54/88
f 42/55/89 41/56/90 21/57/91 22/58/92
f 43/59/93 42/55/94 22/58/95 26/60/96
f 44/61/97 43/59/98 26/60/99 27/62/100
f 45/63/101 44/61/102 27/62/103 28/64/104
f 138/65/105 133/66/106 49/67/107 66/68/108
f 133/66/109 134/69/110 50/70/111 49/67/112
f 134/71/113 135/72/114 51/73/115 50/74/116
f 137/75/117 138/65/118 66/68/119 65/76/120
f 51/73/121 135/72/122 136/77/123 64/78/124
f 48/79/125 47/80/126 126/81/127
f 23/82/128 25/8/129 125/83/130
f 142/84/131 143/85/132 50/74/133 51/73/134
f 143/86/135 144/87/136 49/67/137 50/70/138
f 144/87/139 139/88/140 66/68/141 49/67/142
f 162/89/143 157/90/144 56/91/145 52/92/146
f 158/93/147 159/94/148 53/95/149 57/96/150
f 159/94/151 160/97/152 55/98/153 53/95/154
f 160/99/155 161/100/156 54/101/157 55/102/158
f 161/100/159 162/89/160 52/92/161 54/101/162
f 180/103/163 175/104/164 58/105/165 59/106/166
f 175/104/167 176/107/168 60/108/169 58/105/170
f 176/109/171 177/110/172 61/111/173 60/112/174
f 178/113/175 179/114/176 62/115/177 63/116/178
f 179/117/179 180/103/180 59/106/181 62/118/182
f 177/110/183 178/113/184 63/116/185 61/111/186
f 85/119/187 84/120/188 80/121/189 130/122/190
f 131/123/191 88/124/192 87/125/193 91/126/194
f 67/127/195 99/128/196 100/129/197 98/130/198
f 71/131/199 70/132/200 103/133/201 104/134/202
f 68/135/203 101/136/204 102/137/205 97/138/206
f 69/139/207 105/140/208 106/141/209 72/142/210
f 104/134/211 105/140/212 69/139/213 71/131/214
f 106/141/215 99/128/216 67/127/217 72/142/218
f 73/143/219 107/144/220 108/145/221 96/146/222
f 77/147/223 76/148/224 111/149/225 112/150/226
f 74/151/227 109/152/228 110/153/229 95/154/230
f 75/155/231 113/156/232 114/157/233 78/158/234
f 112/150/235 113/156/236 75/155/237 77/147/238
f 114/157/239 107/159/240 73/160/241 78/158/242
f 95/154/243 110/153/244 111/149/245 76/148/246
f 96/146/247 108/145/248 109/152/249 74/151/250
f 97/138/251 102/137/252 103/161/253 70/162/254
f 98/130/255 100/129/256 101/136/257 68/135/258
f 100/163/259 99/164/260 79/165/261 80/166/262
f 101/167/263 100/163/264 80/166/265 84/168/266
f 102/169/267 101/167/268 84/168/269 85/170/270
f 103/171/271 102/169/272 85/170/273 86/172/274
f 108/173/275 107/174/276 87/175/277 88/176/278
f 109/177/279 108/173/280 88/176/281 92/178/282
f 110/179/283 109/177/284 92/178/285 93/180/286
f 111/181/287 110/179/288 93/180/289 94/182/290
f 156/183/291 151/184/292 115/185/293 120/186/294
f 151/184/295 152/187/296 116/188/297 115/185/298
f 152/189/299 153/190/300 117/191/301 116/192/302
f 155/193/303 156/183/304 120/186/305 119/194/306
f 117/191/307 153/190/308 154/195/309 118/196/310
f 114/197/311 113/198/312 122/199/313
f 89/200/314 91/126/315 121/201/316
f 148/202/317 149/203/318 116/192/319 117/191/320
f 149/204/321 150/205/322 115/185/323 116/188/324
f 150/205/325 145/206/326 120/186/327 115/185/328
f 174/207/329 169/208/330 62/118/331 59/106/332
f 170/209/333 171/210/334 61/111/335 63/116/336
f 171/210/337 172/211/338 60/112/339 61/111/340
f 172/212/341 173/213/342 58/105/343 60/108/344
f 173/213/345 174/207/346 59/106/347 58/105/348
f 168/214/349 163/215/350 54/101/351 52/92/352
f 163/215/353 164/216/354 55/102/355 54/101/356
f 164/217/357 165/218/358 53/95/359 55/98/360
f 166/219/361 167/220/362 56/221/363 57/96/364
f 167/222/365 168/214/366 52/92/367 56/91/368
f 165/218/369 166/219/370 57/96/371 53/95/372
f 136/77/373 137/223/374 65/224/375 64/78/376
f 157/225/377 158/93/378 57/96/379 56/221/380
f 154/195/381 155/226/382 119/227/383 118/196/384
f 63/116/385 62/115/386 169/228/387 170/209/388
f 147/229/389 148/202/390 117/191/391 118/196/392
f 146/230/393 147/229/394 118/196/395 119/227/396
f 145/206/397 146/231/398 119/194/399 120/186/400
f 90/232/401 89/200/402 123/233/403
f 113/198/404 112/234/405 124/235/406
f 141/236/407 142/84/408 51/73/409 64/78/410
f 140/237/411 141/236/412 64/78/413 65/224/414
f 139/88/415 140/238/416 65/76/417 66/68/418
f 24/239/419 23/82/420 127/240/421
f 47/80/422 46/241/423 128/242/424
f 24/239/425 129/5/426 25/8/427 23/82/428
f 27/243/429 129/5/430 24/239/431 28/244/432
f 27/243/433 26/245/434 22/6/435 129/5/436
f 85/119/437 130/122/438 82/246/439 86/247/440
f 130/122/441 80/121/442 79/248/443 83/249/444
f 82/246/445 130/122/446 83/249/447 81/250/448
f 90/232/449 131/123/450 91/126/451 89/200/452
f 93/251/453 131/123/454 90/232/455 94/252/456
f 93/251/457 92/253/458 88/124/459 131/123/460
f 17/1/461 15/254/462 16/255/463 132/2/464
f 132/2/465 16/255/466 20/256/467 19/257/468
f 14/3/469 132/2/470 19/257/471 18/258/472
f 37/53/473 20/54/474 134/69/475 133/66/476
f 20/256/477 16/255/478 135/72/479 134/71/480
f 136/77/481 135/72/482 16/255/483 15/254/484
f 15/254/485 181/259/486 137/223/487 136/77/488
f 39/260/489 38/261/490 138/65/491 137/75/492
f 38/261/493 37/53/494 133/66/495 138/65/496
f 48/79/497 126/81/498 140/238/499 139/88/500
f 126/262/501 125/83/502 141/236/503 140/237/504
f 125/83/505 25/8/506 142/84/507 141/236/508
f 25/8/509 21/7/510 143/85/511 142/84/512
f 21/57/513 41/56/514 144/87/515 143/86/516
f 41/56/517 48/79/518 139/88/519 144/87/520
f 114/197/521 122/199/522 146/231/523 145/206/524
f 122/263/525 121/201/526 147/229/527 146/230/528
f 121/201/529 91/126/530 148/202/531 147/229/532
f 91/126/533 87/125/534 149/203/535 148/202/536
f 87/175/537 107/174/538 150/205/539 149/204/540
f 107/174/541 114/197/542 145/206/543 150/205/544
f 103/171/545 86/172/546 152/187/547 151/184/548
f 86/247/549 82/246/550 153/190/551 152/189/552
f 154/195/553 153/190/554 82/246/555 81/250/556
f 81/250/557 182/264/558 155/226/559 154/195/560
f 105/265/561 104/266/562 156/183/563 155/193/564
f 104/266/565 103/171/566 151/184/567 156/183/568
f 157/225/569 181/259/570 15/254/571 158/93/572
f 15/254/573 17/1/574 159/94/575 158/93/576
f 17/1/577 13/4/578 160/97/579 159/94/580
f 13/47/581 33/46/582 161/100/583 160/99/584
f 33/46/585 40/267/586 162/89/587 161/100/588
f 40/267/589 39/260/590 157/90/591 162/89/592
f 111/181/593 94/182/594 164/216/595 163/215/596
f 94/252/597 90/232/598 165/218/599 164/217/600
f 90/232/601 123/233/602 166/219/603 165/218/604
f 123/233/605 124/268/606 167/220/607 166/219/608
f 124/235/609 112/234/610 168/214/611 167/222/612
f 112/234/613 111/181/614 163/215/615 168/214/616
f 170/209/617 169/228/618 182/264/619 81/250/620
f 81/250/621 83/249/622 171/210/623 170/209/624
f 83/249/625 79/248/626 172/211/627 171/210/628
f 79/165/629 99/164/630 173/213/631 172/212/632
f 99/164/633 106/269/634 174/207/635 173/213/636
f 106/269/637 105/265/638 169/208/639 174/207/640
f 45/63/641 28/64/642 176/107/643 175/104/644
f 28/244/645 24/239/646 177/110/647 176/109/648
f 24/239/649 127/240/650 178/113/651 177/110/652
f 127/240/653 128/270/654 179/114/655 178/113/656
f 128/242/657 46/241/658 180/103/659 179/117/660
f 46/241/661 45/63/662 175/104/663 180/103/664
f 39/260/665 181/271/666 157/90/667
f 137/75/668 181/271/669 39/260/670
f 182/272/671 169/208/672 105/265/673
f 155/193/674 182/272/675 105/265/676
f 126/81/677 47/80/678 113/198/679 124/235/680
f 47/80/681 128/242/682 122/199/683 113/198/684
f 128/270/685 127/240/686 121/201/687 122/263/688
f 127/240/689 23/82/690 89/200/691 121/201/692
f 23/82/693 125/83/694 123/233/695 89/200/696
f 125/83/697 126/262/698 124/268/699 123/233/700
